# 
# Wavefront OBJ file
# Converted by the 3D Exploration 1.5.30
# XDimension Software, LLC
# http://www.xdsoft.com/explorer/
# 
# object Object #1
g Object__1
v -0.5 -0.5 -0.5
v 0.5 -0.5 0.5
v -0.5 -0.5 0.5
v 0.5 -0.5 -0.5
v -0.5 0.5 -0.5
v 0.5 0.5 0.5
v 0.5 0.5 -0.5
v -0.5 0.5 0.5
vt 0.999501 0.000500023
vt 0.0005 0.9995
vt 0.9995 0.9995
vt 0.0005 0.000500023
vt 0.999501 0.9995
vt 0.9995 0.000500023
vt 0.0005 0.00049901
vt 0.9995 0.999501
vt 0.9995 0.00049901
vt 0.0005 0.999501
# 10 texture verticies
vn 0 -1 0
vn 0 1 0
vn 0 0 -1
vn 1 0 0
vn 0 0 1
vn -1 0 0
# 6 normals
usemtl (null)
f 1/1/1 2/2/1 3/3/1
f 2/2/1 1/1/1 4/4/1
f 5/4/2 6/5/2 7/6/2
f 6/5/2 5/4/2 8/2/2
f 1/7/3 7/8/3 4/9/3
f 7/8/3 1/7/3 5/10/3
f 4/7/4 6/8/4 2/9/4
f 6/8/4 4/7/4 7/10/4
f 2/7/5 8/8/5 3/9/5
f 8/8/5 2/7/5 6/10/5
f 3/7/6 5/8/6 1/9/6
f 5/8/6 3/7/6 8/10/6
