# 
# Wavefront OBJ file
# Converted by the DEEP Exploration 
# Right Hemisphere, LTD
# http://www.righthemisphere.com/
# 
# object Object #2
g Object__2
v 0 0 -2.5
v 1 0 -2.5
v 0.939693 0.34202 -2.5
v 0.766044 0.642788 -2.5
v 0.5 0.866025 -2.5
v 0.173648 0.984808 -2.5
v -0.173648 0.984808 -2.5
v -0.5 0.866025 -2.5
v -0.766045 0.642788 -2.5
v -0.939693 0.34202 -2.5
v -1 0 -2.5
v -0.939693 -0.34202 -2.5
v -0.766044 -0.642788 -2.5
v -0.5 -0.866026 -2.5
v -0.173648 -0.984808 -2.5
v 0.173648 -0.984808 -2.5
v 0.5 -0.866025 -2.5
v 0.766045 -0.642787 -2.5
v 0.939693 -0.34202 -2.5
v 1 0 -1.5
v 0.939693 0.34202 -1.5
v 0.766044 0.642788 -1.5
v 0.5 0.866025 -1.5
v 0.173648 0.984808 -1.5
v -0.173648 0.984808 -1.5
v -0.5 0.866025 -1.5
v -0.766045 0.642788 -1.5
v -0.939693 0.34202 -1.5
v -1 0 -1.5
v -0.939693 -0.34202 -1.5
v -0.766044 -0.642788 -1.5
v -0.5 -0.866026 -1.5
v -0.173648 -0.984808 -1.5
v 0.173648 -0.984808 -1.5
v 0.5 -0.866025 -1.5
v 0.766045 -0.642787 -1.5
v 0.939693 -0.34202 -1.5
v 1 0 -0.5
v 0.939693 0.34202 -0.5
v 0.766044 0.642788 -0.5
v 0.5 0.866025 -0.5
v 0.173648 0.984808 -0.5
v -0.173648 0.984808 -0.5
v -0.5 0.866025 -0.5
v -0.766045 0.642788 -0.5
v -0.939693 0.34202 -0.5
v -1 0 -0.5
v -0.939693 -0.34202 -0.5
v -0.766044 -0.642788 -0.5
v -0.5 -0.866026 -0.5
v -0.173648 -0.984808 -0.5
v 0.173648 -0.984808 -0.5
v 0.5 -0.866025 -0.5
v 0.766045 -0.642787 -0.5
v 0.939693 -0.34202 -0.5
v 1 0 0.5
v 0.939693 0.34202 0.5
v 0.766044 0.642788 0.5
v 0.5 0.866025 0.5
v 0.173648 0.984808 0.5
v -0.173648 0.984808 0.5
v -0.5 0.866025 0.5
v -0.766045 0.642788 0.5
v -0.939693 0.34202 0.5
v -1 0 0.5
v -0.939693 -0.34202 0.5
v -0.766044 -0.642788 0.5
v -0.5 -0.866026 0.5
v -0.173648 -0.984808 0.5
v 0.173648 -0.984808 0.5
v 0.5 -0.866025 0.5
v 0.766045 -0.642787 0.5
v 0.939693 -0.34202 0.5
v 1 0 1.5
v 0.939693 0.34202 1.5
v 0.766044 0.642788 1.5
v 0.5 0.866025 1.5
v 0.173648 0.984808 1.5
v -0.173648 0.984808 1.5
v -0.5 0.866025 1.5
v -0.766045 0.642788 1.5
v -0.939693 0.34202 1.5
v -1 0 1.5
v -0.939693 -0.34202 1.5
v -0.766044 -0.642788 1.5
v -0.5 -0.866026 1.5
v -0.173648 -0.984808 1.5
v 0.173648 -0.984808 1.5
v 0.5 -0.866025 1.5
v 0.766045 -0.642787 1.5
v 0.939693 -0.34202 1.5
v 1 0 2.5
v 0.939693 0.34202 2.5
v 0.766044 0.642788 2.5
v 0.5 0.866025 2.5
v 0.173648 0.984808 2.5
v -0.173648 0.984808 2.5
v -0.5 0.866025 2.5
v -0.766045 0.642788 2.5
v -0.939693 0.34202 2.5
v -1 0 2.5
v -0.939693 -0.34202 2.5
v -0.766044 -0.642788 2.5
v -0.5 -0.866026 2.5
v -0.173648 -0.984808 2.5
v 0.173648 -0.984808 2.5
v 0.5 -0.866025 2.5
v 0.766045 -0.642787 2.5
v 0.939693 -0.34202 2.5
v 0 0 2.5
# 110 verticies
vt 0.805556 0
vt 0.75 0
vt 0.5 0
vt 0.861111 0
vt 0.916667 0
vt 0.972222 0
vt 0.027778 0
vt -0.027778 0
vt 0.083333 0
vt 0.138889 0
vt 0.194444 0
vt 0.25 0
vt 0.305556 0
vt 0.361111 0
vt 0.416667 0
vt 0.472222 0
vt 0.527778 0
vt 0.583333 0
vt 0.638889 0
vt 0.694444 0
vt 0.805556 0.2
vt 0.75 0.2
vt 0.861111 0.2
vt 0.916667 0.2
vt 0.972222 0.2
vt 0.027778 0.2
vt -0.027778 0.2
vt 0.083333 0.2
vt 0.138889 0.2
vt 0.194444 0.2
vt 0.25 0.2
vt 0.305556 0.2
vt 0.361111 0.2
vt 0.416667 0.2
vt 0.472222 0.2
vt 0.527778 0.2
vt 0.583333 0.2
vt 0.638889 0.2
vt 0.694444 0.2
vt 0.805556 0.4
vt 0.75 0.4
vt 0.861111 0.4
vt 0.916667 0.4
vt 0.972222 0.4
vt 0.027778 0.4
vt -0.027778 0.4
vt 0.083333 0.4
vt 0.138889 0.4
vt 0.194444 0.4
vt 0.25 0.4
vt 0.305556 0.4
vt 0.361111 0.4
vt 0.416667 0.4
vt 0.472222 0.4
vt 0.527778 0.4
vt 0.583333 0.4
vt 0.638889 0.4
vt 0.694444 0.4
vt 0.805556 0.6
vt 0.75 0.6
vt 0.861111 0.6
vt 0.916667 0.6
vt 0.972222 0.6
vt 0.027778 0.6
vt -0.027778 0.6
vt 0.083333 0.6
vt 0.138889 0.6
vt 0.194444 0.6
vt 0.25 0.6
vt 0.305556 0.6
vt 0.361111 0.6
vt 0.416667 0.6
vt 0.472222 0.6
vt 0.527778 0.6
vt 0.583333 0.6
vt 0.638889 0.6
vt 0.694444 0.6
vt 0.805556 0.8
vt 0.75 0.8
vt 0.861111 0.8
vt 0.916667 0.8
vt 0.972222 0.8
vt 0.027778 0.8
vt -0.027778 0.8
vt 0.083333 0.8
vt 0.138889 0.8
vt 0.194444 0.8
vt 0.25 0.8
vt 0.305556 0.8
vt 0.361111 0.8
vt 0.416667 0.8
vt 0.472222 0.8
vt 0.527778 0.8
vt 0.583333 0.8
vt 0.638889 0.8
vt 0.694444 0.8
vt 0.805556 1
vt 0.75 1
vt 0.861111 1
vt 0.916667 1
vt 0.972222 1
vt 0.027778 1
vt -0.027778 1
vt 0.083333 1
vt 0.138889 1
vt 0.194444 1
vt 0.25 1
vt 0.305556 1
vt 0.361111 1
vt 0.416667 1
vt 0.472222 1
vt 0.527778 1
vt 0.583333 1
vt 0.638889 1
vt 0.694444 1
vt 0.5 1
# 116 texture verticies
vn 0 0 -1
vn 0.939693 0.34202 0
vn 1 0 0
vn 0.766044 0.642788 0
vn 0.5 0.866025 0
vn 0.173648 0.984808 0
vn -0.173648 0.984808 0
vn -0.5 0.866025 0
vn -0.766044 0.642788 0
vn -0.939693 0.34202 0
vn -1 0 0
vn -0.939693 -0.34202 0
vn -0.766044 -0.642788 0
vn -0.5 -0.866026 0
vn -0.173648 -0.984808 0
vn 0.173648 -0.984808 0
vn 0.5 -0.866025 0
vn 0.766045 -0.642787 0
vn 0.939693 -0.34202 0
vn 0.958142 0.286295 0
vn 0.998277 -0.0586741 0
vn 0.802439 0.596734 0
vn 0.549952 0.835196 0
vn 0.231133 0.972922 0
vn -0.115567 0.9933 0
vn -0.448325 0.893871 0
vn -0.727009 0.686628 0
vn -0.918006 0.396566 0
vn -0.998277 0.0586741 0
vn -0.958142 -0.286295 0
vn -0.80244 -0.596733 0
vn -0.549953 -0.835196 0
vn -0.231131 -0.972923 0
vn 0.115567 -0.9933 0
vn 0.448326 -0.89387 0
vn 0.727009 -0.686628 0
vn 0.918006 -0.396567 0
vn 0 0 1
# 38 normals
f  3/1/1 2/2/1 1/3/1
f  4/4/1 3/1/1 1/3/1
f  5/5/1 4/4/1 1/3/1
f  6/6/1 5/5/1 1/3/1
f  7/7/1 6/8/1 1/3/1
f  8/9/1 7/7/1 1/3/1
f  9/10/1 8/9/1 1/3/1
f  10/11/1 9/10/1 1/3/1
f  11/12/1 10/11/1 1/3/1
f  12/13/1 11/12/1 1/3/1
f  13/14/1 12/13/1 1/3/1
f  14/15/1 13/14/1 1/3/1
f  15/16/1 14/15/1 1/3/1
f  16/17/1 15/16/1 1/3/1
f  17/18/1 16/17/1 1/3/1
f  18/19/1 17/18/1 1/3/1
f  19/20/1 18/19/1 1/3/1
f  2/2/1 19/20/1 1/3/1
f  21/21/2 20/22/3 2/2/3
f  3/1/2 21/21/2 2/2/3
f  22/23/4 21/21/2 3/1/2
f  4/4/4 22/23/4 3/1/2
f  23/24/5 22/23/4 4/4/4
f  5/5/5 23/24/5 4/4/4
f  24/25/6 23/24/5 5/5/5
f  6/6/6 24/25/6 5/5/5
f  25/26/7 24/27/6 6/8/6
f  7/7/7 25/26/7 6/8/6
f  26/28/8 25/26/7 7/7/7
f  8/9/8 26/28/8 7/7/7
f  27/29/9 26/28/8 8/9/8
f  9/10/9 27/29/9 8/9/8
f  28/30/10 27/29/9 9/10/9
f  10/11/10 28/30/10 9/10/9
f  29/31/11 28/30/10 10/11/10
f  11/12/11 29/31/11 10/11/10
f  30/32/12 29/31/11 11/12/11
f  12/13/12 30/32/12 11/12/11
f  31/33/13 30/32/12 12/13/12
f  13/14/13 31/33/13 12/13/12
f  32/34/14 31/33/13 13/14/13
f  14/15/14 32/34/14 13/14/13
f  33/35/15 32/34/14 14/15/14
f  15/16/15 33/35/15 14/15/14
f  34/36/16 33/35/15 15/16/15
f  16/17/16 34/36/16 15/16/15
f  35/37/17 34/36/16 16/17/16
f  17/18/17 35/37/17 16/17/16
f  36/38/18 35/37/17 17/18/17
f  18/19/18 36/38/18 17/18/17
f  37/39/19 36/38/18 18/19/18
f  19/20/19 37/39/19 18/19/18
f  20/22/3 37/39/19 19/20/19
f  2/2/3 20/22/3 19/20/19
f  39/40/2 38/41/3 20/22/3
f  21/21/2 39/40/2 20/22/3
f  40/42/4 39/40/2 21/21/2
f  22/23/4 40/42/4 21/21/2
f  41/43/5 40/42/4 22/23/4
f  23/24/5 41/43/5 22/23/4
f  42/44/6 41/43/5 23/24/5
f  24/25/6 42/44/6 23/24/5
f  43/45/7 42/46/6 24/27/6
f  25/26/7 43/45/7 24/27/6
f  44/47/8 43/45/7 25/26/7
f  26/28/8 44/47/8 25/26/7
f  45/48/9 44/47/8 26/28/8
f  27/29/9 45/48/9 26/28/8
f  46/49/10 45/48/9 27/29/9
f  28/30/10 46/49/10 27/29/9
f  47/50/11 46/49/10 28/30/10
f  29/31/11 47/50/11 28/30/10
f  48/51/12 47/50/11 29/31/11
f  30/32/12 48/51/12 29/31/11
f  49/52/13 48/51/12 30/32/12
f  31/33/13 49/52/13 30/32/12
f  50/53/14 49/52/13 31/33/13
f  32/34/14 50/53/14 31/33/13
f  51/54/15 50/53/14 32/34/14
f  33/35/15 51/54/15 32/34/14
f  52/55/16 51/54/15 33/35/15
f  34/36/16 52/55/16 33/35/15
f  53/56/17 52/55/16 34/36/16
f  35/37/17 53/56/17 34/36/16
f  54/57/18 53/56/17 35/37/17
f  36/38/18 54/57/18 35/37/17
f  55/58/19 54/57/18 36/38/18
f  37/39/19 55/58/19 36/38/18
f  38/41/3 55/58/19 37/39/19
f  20/22/3 38/41/3 37/39/19
f  57/59/2 56/60/3 38/41/3
f  39/40/2 57/59/2 38/41/3
f  58/61/4 57/59/2 39/40/2
f  40/42/4 58/61/4 39/40/2
f  59/62/5 58/61/4 40/42/4
f  41/43/5 59/62/5 40/42/4
f  60/63/6 59/62/5 41/43/5
f  42/44/6 60/63/6 41/43/5
f  61/64/7 60/65/6 42/46/6
f  43/45/7 61/64/7 42/46/6
f  62/66/8 61/64/7 43/45/7
f  44/47/8 62/66/8 43/45/7
f  63/67/9 62/66/8 44/47/8
f  45/48/9 63/67/9 44/47/8
f  64/68/10 63/67/9 45/48/9
f  46/49/10 64/68/10 45/48/9
f  65/69/11 64/68/10 46/49/10
f  47/50/11 65/69/11 46/49/10
f  66/70/12 65/69/11 47/50/11
f  48/51/12 66/70/12 47/50/11
f  67/71/13 66/70/12 48/51/12
f  49/52/13 67/71/13 48/51/12
f  68/72/14 67/71/13 49/52/13
f  50/53/14 68/72/14 49/52/13
f  69/73/15 68/72/14 50/53/14
f  51/54/15 69/73/15 50/53/14
f  70/74/16 69/73/15 51/54/15
f  52/55/16 70/74/16 51/54/15
f  71/75/17 70/74/16 52/55/16
f  53/56/17 71/75/17 52/55/16
f  72/76/18 71/75/17 53/56/17
f  54/57/18 72/76/18 53/56/17
f  73/77/19 72/76/18 54/57/18
f  55/58/19 73/77/19 54/57/18
f  56/60/3 73/77/19 55/58/19
f  38/41/3 56/60/3 55/58/19
f  75/78/2 74/79/3 56/60/3
f  57/59/2 75/78/2 56/60/3
f  76/80/4 75/78/2 57/59/2
f  58/61/4 76/80/4 57/59/2
f  77/81/5 76/80/4 58/61/4
f  59/62/5 77/81/5 58/61/4
f  78/82/6 77/81/5 59/62/5
f  60/63/6 78/82/6 59/62/5
f  79/83/7 78/84/6 60/65/6
f  61/64/7 79/83/7 60/65/6
f  80/85/8 79/83/7 61/64/7
f  62/66/8 80/85/8 61/64/7
f  81/86/9 80/85/8 62/66/8
f  63/67/9 81/86/9 62/66/8
f  82/87/10 81/86/9 63/67/9
f  64/68/10 82/87/10 63/67/9
f  83/88/11 82/87/10 64/68/10
f  65/69/11 83/88/11 64/68/10
f  84/89/12 83/88/11 65/69/11
f  66/70/12 84/89/12 65/69/11
f  85/90/13 84/89/12 66/70/12
f  67/71/13 85/90/13 66/70/12
f  86/91/14 85/90/13 67/71/13
f  68/72/14 86/91/14 67/71/13
f  87/92/15 86/91/14 68/72/14
f  69/73/15 87/92/15 68/72/14
f  88/93/16 87/92/15 69/73/15
f  70/74/16 88/93/16 69/73/15
f  89/94/17 88/93/16 70/74/16
f  71/75/17 89/94/17 70/74/16
f  90/95/18 89/94/17 71/75/17
f  72/76/18 90/95/18 71/75/17
f  91/96/19 90/95/18 72/76/18
f  73/77/19 91/96/19 72/76/18
f  74/79/3 91/96/19 73/77/19
f  56/60/3 74/79/3 73/77/19
f  93/97/20 92/98/21 74/79/3
f  75/78/2 93/97/20 74/79/3
f  94/99/22 93/97/20 75/78/2
f  76/80/4 94/99/22 75/78/2
f  95/100/23 94/99/22 76/80/4
f  77/81/5 95/100/23 76/80/4
f  96/101/24 95/100/23 77/81/5
f  78/82/6 96/101/24 77/81/5
f  97/102/25 96/103/24 78/84/6
f  79/83/7 97/102/25 78/84/6
f  98/104/26 97/102/25 79/83/7
f  80/85/8 98/104/26 79/83/7
f  99/105/27 98/104/26 80/85/8
f  81/86/9 99/105/27 80/85/8
f  100/106/28 99/105/27 81/86/9
f  82/87/10 100/106/28 81/86/9
f  101/107/29 100/106/28 82/87/10
f  83/88/11 101/107/29 82/87/10
f  102/108/30 101/107/29 83/88/11
f  84/89/12 102/108/30 83/88/11
f  103/109/31 102/108/30 84/89/12
f  85/90/13 103/109/31 84/89/12
f  104/110/32 103/109/31 85/90/13
f  86/91/14 104/110/32 85/90/13
f  105/111/33 104/110/32 86/91/14
f  87/92/15 105/111/33 86/91/14
f  106/112/34 105/111/33 87/92/15
f  88/93/16 106/112/34 87/92/15
f  107/113/35 106/112/34 88/93/16
f  89/94/17 107/113/35 88/93/16
f  108/114/36 107/113/35 89/94/17
f  90/95/18 108/114/36 89/94/17
f  109/115/37 108/114/36 90/95/18
f  91/96/19 109/115/37 90/95/18
f  92/98/21 109/115/37 91/96/19
f  74/79/3 92/98/21 91/96/19
f  92/98/38 93/97/38 110/116/38
f  93/97/38 94/99/38 110/116/38
f  94/99/38 95/100/38 110/116/38
f  95/100/38 96/101/38 110/116/38
f  96/103/38 97/102/38 110/116/38
f  97/102/38 98/104/38 110/116/38
f  98/104/38 99/105/38 110/116/38
f  99/105/38 100/106/38 110/116/38
f  100/106/38 101/107/38 110/116/38
f  101/107/38 102/108/38 110/116/38
f  102/108/38 103/109/38 110/116/38
f  103/109/38 104/110/38 110/116/38
f  104/110/38 105/111/38 110/116/38
f  105/111/38 106/112/38 110/116/38
f  106/112/38 107/113/38 110/116/38
f  107/113/38 108/114/38 110/116/38
f  108/114/38 109/115/38 110/116/38
f  109/115/38 92/98/38 110/116/38
